<svg xmlns="http://www.w3.org/2000/svg" viewBox="0 0 241.92 231.12"><g id="exemples"><path d="M120.8,111.8l-15,15,47.73,47.77c-1.19.08-1.88.17-2.57.17-16.86,0-33.73,0-50.6-.07a5.63,5.63,0,0,1-3.58-1.47c-5.65-5.46-11.16-11.07-16.71-16.63l-2.13-2.13-2,2c-5.68,5.68-11.33,11.38-17.07,17a4.79,4.79,0,0,1-2.94,1.28c-17.19.07-34.39.05-51.59,0-.53,0-1.06-.09-2.17-.19l2.19-2.19L118.58,58.24c2.52-2.51,2.52-2.51,5.07,0l113.86,114,2.24,2.23a20.4,20.4,0,0,1-2.16.27c-17.36,0-34.72,0-52.08-.07A5.69,5.69,0,0,1,182,173q-29.49-29.37-58.88-58.86Z"/></g></svg>